<?xml version="1.0" encoding="UTF-8" standalone="no"?>
<!DOCTYPE svg PUBLIC "-//W3C//DTD SVG 1.1//EN"
 "http://www.w3.org/Graphics/SVG/1.1/DTD/svg11.dtd">
<!-- Generated by graphviz version 2.44.1 (20200629.0846)
 -->
<!-- Title: PolyCARP_analysis Pages: 1 -->
<svg width="970pt" height="257pt"
 viewBox="0.00 0.00 970.00 257.00" xmlns="http://www.w3.org/2000/svg" xmlns:xlink="http://www.w3.org/1999/xlink">
<g id="graph0" class="graph" transform="scale(1 1) rotate(0) translate(4 253)">
<title>PolyCARP_analysis</title>
<polygon fill="white" stroke="transparent" points="-4,4 -4,-253 966,-253 966,4 -4,4"/>
<g id="clust1" class="cluster">
<title>cluster_NASALib</title>
<polygon fill="none" stroke="black" points="8,-8 8,-83 858,-83 858,-8 8,-8"/>
<text text-anchor="middle" x="433" y="-67.8" font-family="Times,serif" font-size="14.00">NASALib</text>
</g>
<g id="clust2" class="cluster">
<title>cluster_PVS Prelude</title>
<polygon fill="none" stroke="black" points="866,-8 866,-83 954,-83 954,-8 866,-8"/>
<text text-anchor="middle" x="910" y="-67.8" font-family="Times,serif" font-size="14.00">PVS Prelude</text>
</g>
<g id="clust3" class="cluster">
<title>cluster_PolyCARP</title>
<polygon fill="none" stroke="black" points="514,-91 514,-241 658,-241 658,-91 514,-91"/>
<text text-anchor="middle" x="586" y="-225.8" font-family="Times,serif" font-size="14.00">PolyCARP</text>
</g>
<g id="clust4" class="cluster">
<title>cluster_PolyCARP_analysis</title>
<polygon fill="none" stroke="black" points="373,-91 373,-166 500,-166 500,-91 373,-91"/>
<text text-anchor="middle" x="436.5" y="-150.8" font-family="Times,serif" font-size="14.00">PolyCARP_analysis</text>
</g>
<!-- /Users/mmoscato/nasa/polycarp/gitlab__master/PVS/PolyCARP -->
<g id="node1" class="node">
<title>/Users/mmoscato/nasa/polycarp/gitlab__master/PVS/PolyCARP</title>
<polygon fill="#fcfcd7" stroke="black" points="624.5,-135 547.5,-135 547.5,-99 624.5,-99 624.5,-135"/>
<text text-anchor="middle" x="586" y="-113.3" font-family="Times,serif" font-size="14.00">PolyCARP</text>
</g>
<!-- /Users/mmoscato/nasa/pvslib/pvslib&#45;github/analysis -->
<g id="node4" class="node">
<title>/Users/mmoscato/nasa/pvslib/pvslib&#45;github/analysis</title>
<polygon fill="#fcfcd7" stroke="black" points="778,-52 718,-52 718,-16 778,-16 778,-52"/>
<text text-anchor="middle" x="748" y="-30.3" font-family="Times,serif" font-size="14.00">analysis</text>
</g>
<!-- /Users/mmoscato/nasa/polycarp/gitlab__master/PVS/PolyCARP&#45;&gt;/Users/mmoscato/nasa/pvslib/pvslib&#45;github/analysis -->
<g id="edge1" class="edge">
<title>/Users/mmoscato/nasa/polycarp/gitlab__master/PVS/PolyCARP&#45;&gt;/Users/mmoscato/nasa/pvslib/pvslib&#45;github/analysis</title>
<path fill="none" stroke="black" d="M624.75,-113C669.78,-113 738,-113 738,-113 738,-113 738,-62.32 738,-62.32"/>
<polygon fill="black" stroke="black" points="741.5,-62.32 738,-52.32 734.5,-62.32 741.5,-62.32"/>
</g>
<!-- /Users/mmoscato/nasa/pvslib/pvslib&#45;github/ints -->
<g id="node7" class="node">
<title>/Users/mmoscato/nasa/pvslib/pvslib&#45;github/ints</title>
<polygon fill="#fcfcd7" stroke="black" points="850,-52 796,-52 796,-16 850,-16 850,-52"/>
<text text-anchor="middle" x="823" y="-30.3" font-family="Times,serif" font-size="14.00">ints</text>
</g>
<!-- /Users/mmoscato/nasa/polycarp/gitlab__master/PVS/PolyCARP&#45;&gt;/Users/mmoscato/nasa/pvslib/pvslib&#45;github/ints -->
<g id="edge2" class="edge">
<title>/Users/mmoscato/nasa/polycarp/gitlab__master/PVS/PolyCARP&#45;&gt;/Users/mmoscato/nasa/pvslib/pvslib&#45;github/ints</title>
<path fill="none" stroke="black" d="M624.68,-120C689.73,-120 814,-120 814,-120 814,-120 814,-62.24 814,-62.24"/>
<polygon fill="black" stroke="black" points="817.5,-62.24 814,-52.24 810.5,-62.24 817.5,-62.24"/>
</g>
<!-- /Users/mmoscato/nasa/pvslib/pvslib&#45;github/orders -->
<g id="node9" class="node">
<title>/Users/mmoscato/nasa/pvslib/pvslib&#45;github/orders</title>
<polygon fill="#fcfcd7" stroke="black" points="322,-52 268,-52 268,-16 322,-16 322,-52"/>
<text text-anchor="middle" x="295" y="-30.3" font-family="Times,serif" font-size="14.00">orders</text>
</g>
<!-- /Users/mmoscato/nasa/polycarp/gitlab__master/PVS/PolyCARP&#45;&gt;/Users/mmoscato/nasa/pvslib/pvslib&#45;github/orders -->
<g id="edge3" class="edge">
<title>/Users/mmoscato/nasa/polycarp/gitlab__master/PVS/PolyCARP&#45;&gt;/Users/mmoscato/nasa/pvslib/pvslib&#45;github/orders</title>
<path fill="none" stroke="black" d="M557.2,-98.79C557.2,-93.45 557.2,-89 557.2,-89 557.2,-89 304,-89 304,-89 304,-89 304,-62.01 304,-62.01"/>
<polygon fill="black" stroke="black" points="307.5,-62.01 304,-52.01 300.5,-62.01 307.5,-62.01"/>
</g>
<!-- /Users/mmoscato/nasa/pvslib/pvslib&#45;github/reals -->
<g id="node10" class="node">
<title>/Users/mmoscato/nasa/pvslib/pvslib&#45;github/reals</title>
<polygon fill="#fcfcd7" stroke="black" points="394,-52 340,-52 340,-16 394,-16 394,-52"/>
<text text-anchor="middle" x="367" y="-30.3" font-family="Times,serif" font-size="14.00">reals</text>
</g>
<!-- /Users/mmoscato/nasa/polycarp/gitlab__master/PVS/PolyCARP&#45;&gt;/Users/mmoscato/nasa/pvslib/pvslib&#45;github/reals -->
<g id="edge4" class="edge">
<title>/Users/mmoscato/nasa/polycarp/gitlab__master/PVS/PolyCARP&#45;&gt;/Users/mmoscato/nasa/pvslib/pvslib&#45;github/reals</title>
<path fill="none" stroke="black" d="M560.9,-98.93C560.9,-89.54 560.9,-80 560.9,-80 560.9,-80 376,-80 376,-80 376,-80 376,-62.18 376,-62.18"/>
<polygon fill="black" stroke="black" points="379.5,-62.18 376,-52.18 372.5,-62.18 379.5,-62.18"/>
</g>
<!-- /Users/mmoscato/nasa/pvslib/pvslib&#45;github/series -->
<g id="node11" class="node">
<title>/Users/mmoscato/nasa/pvslib/pvslib&#45;github/series</title>
<polygon fill="#fcfcd7" stroke="black" points="466,-52 412,-52 412,-16 466,-16 466,-52"/>
<text text-anchor="middle" x="439" y="-30.3" font-family="Times,serif" font-size="14.00">series</text>
</g>
<!-- /Users/mmoscato/nasa/polycarp/gitlab__master/PVS/PolyCARP&#45;&gt;/Users/mmoscato/nasa/pvslib/pvslib&#45;github/series -->
<g id="edge5" class="edge">
<title>/Users/mmoscato/nasa/polycarp/gitlab__master/PVS/PolyCARP&#45;&gt;/Users/mmoscato/nasa/pvslib/pvslib&#45;github/series</title>
<path fill="none" stroke="black" d="M564.6,-98.97C564.6,-82.6 564.6,-61 564.6,-61 564.6,-61 448.33,-61 448.33,-61 448.33,-61 448.33,-60.12 448.33,-60.12"/>
<polygon fill="black" stroke="black" points="451.83,-62.16 448.33,-52.16 444.83,-62.16 451.83,-62.16"/>
</g>
<!-- /Users/mmoscato/nasa/pvslib/pvslib&#45;github/structures -->
<g id="node12" class="node">
<title>/Users/mmoscato/nasa/pvslib/pvslib&#45;github/structures</title>
<polygon fill="#fcfcd7" stroke="black" points="553.5,-52 484.5,-52 484.5,-16 553.5,-16 553.5,-52"/>
<text text-anchor="middle" x="519" y="-30.3" font-family="Times,serif" font-size="14.00">structures</text>
</g>
<!-- /Users/mmoscato/nasa/polycarp/gitlab__master/PVS/PolyCARP&#45;&gt;/Users/mmoscato/nasa/pvslib/pvslib&#45;github/structures -->
<g id="edge6" class="edge">
<title>/Users/mmoscato/nasa/polycarp/gitlab__master/PVS/PolyCARP&#45;&gt;/Users/mmoscato/nasa/pvslib/pvslib&#45;github/structures</title>
<path fill="none" stroke="black" d="M568.3,-98.99C568.3,-74.58 568.3,-34 568.3,-34 568.3,-34 563.51,-34 563.51,-34"/>
<polygon fill="black" stroke="black" points="563.51,-30.5 553.51,-34 563.51,-37.5 563.51,-30.5"/>
</g>
<!-- /Users/mmoscato/nasa/pvslib/pvslib&#45;github/trig -->
<g id="node13" class="node">
<title>/Users/mmoscato/nasa/pvslib/pvslib&#45;github/trig</title>
<polygon fill="#fcfcd7" stroke="black" points="626,-52 572,-52 572,-16 626,-16 626,-52"/>
<text text-anchor="middle" x="599" y="-30.3" font-family="Times,serif" font-size="14.00">trig</text>
</g>
<!-- /Users/mmoscato/nasa/polycarp/gitlab__master/PVS/PolyCARP&#45;&gt;/Users/mmoscato/nasa/pvslib/pvslib&#45;github/trig -->
<g id="edge7" class="edge">
<title>/Users/mmoscato/nasa/polycarp/gitlab__master/PVS/PolyCARP&#45;&gt;/Users/mmoscato/nasa/pvslib/pvslib&#45;github/trig</title>
<path fill="none" stroke="black" d="M598.25,-98.99C598.25,-98.99 598.25,-62.26 598.25,-62.26"/>
<polygon fill="black" stroke="black" points="601.75,-62.26 598.25,-52.26 594.75,-62.26 601.75,-62.26"/>
</g>
<!-- /Users/mmoscato/nasa/pvslib/pvslib&#45;github/vectors -->
<g id="node14" class="node">
<title>/Users/mmoscato/nasa/pvslib/pvslib&#45;github/vectors</title>
<polygon fill="#fcfcd7" stroke="black" points="700,-52 644,-52 644,-16 700,-16 700,-52"/>
<text text-anchor="middle" x="672" y="-30.3" font-family="Times,serif" font-size="14.00">vectors</text>
</g>
<!-- /Users/mmoscato/nasa/polycarp/gitlab__master/PVS/PolyCARP&#45;&gt;/Users/mmoscato/nasa/pvslib/pvslib&#45;github/vectors -->
<g id="edge8" class="edge">
<title>/Users/mmoscato/nasa/polycarp/gitlab__master/PVS/PolyCARP&#45;&gt;/Users/mmoscato/nasa/pvslib/pvslib&#45;github/vectors</title>
<path fill="none" stroke="black" d="M624.67,-106C648.59,-106 674.75,-106 674.75,-106 674.75,-106 674.75,-62.17 674.75,-62.17"/>
<polygon fill="black" stroke="black" points="678.25,-62.17 674.75,-52.17 671.25,-62.17 678.25,-62.17"/>
</g>
<!-- /Users/mmoscato/pvs/7.1.0&#45;ix86&#45;MacOSX&#45;allegro/lib/finite_sets -->
<g id="node15" class="node">
<title>/Users/mmoscato/pvs/7.1.0&#45;ix86&#45;MacOSX&#45;allegro/lib/finite_sets</title>
<polygon fill="#fcfcd7" stroke="black" points="945.5,-52 874.5,-52 874.5,-16 945.5,-16 945.5,-52"/>
<text text-anchor="middle" x="910" y="-30.3" font-family="Times,serif" font-size="14.00">finite_sets</text>
</g>
<!-- /Users/mmoscato/nasa/polycarp/gitlab__master/PVS/PolyCARP&#45;&gt;/Users/mmoscato/pvs/7.1.0&#45;ix86&#45;MacOSX&#45;allegro/lib/finite_sets -->
<g id="edge9" class="edge">
<title>/Users/mmoscato/nasa/polycarp/gitlab__master/PVS/PolyCARP&#45;&gt;/Users/mmoscato/pvs/7.1.0&#45;ix86&#45;MacOSX&#45;allegro/lib/finite_sets</title>
<path fill="none" stroke="black" d="M624.59,-127C708.11,-127 898.17,-127 898.17,-127 898.17,-127 898.17,-62.37 898.17,-62.37"/>
<polygon fill="black" stroke="black" points="901.67,-62.37 898.17,-52.37 894.67,-62.37 901.67,-62.37"/>
</g>
<!-- /Users/mmoscato/nasa/polycarp/gitlab__master/PVS/PolyCARP_analysis -->
<g id="node2" class="node">
<title>/Users/mmoscato/nasa/polycarp/gitlab__master/PVS/PolyCARP_analysis</title>
<polygon fill="#f7e28d" stroke="black" points="649.5,-210 522.5,-210 522.5,-174 649.5,-174 649.5,-210"/>
<text text-anchor="middle" x="586" y="-188.3" font-family="Times,serif" font-size="14.00">PolyCARP_analysis</text>
</g>
<!-- /Users/mmoscato/nasa/polycarp/gitlab__master/PVS/PolyCARP_analysis&#45;&gt;/Users/mmoscato/nasa/polycarp/gitlab__master/PVS/PolyCARP -->
<g id="edge10" class="edge">
<title>/Users/mmoscato/nasa/polycarp/gitlab__master/PVS/PolyCARP_analysis&#45;&gt;/Users/mmoscato/nasa/polycarp/gitlab__master/PVS/PolyCARP</title>
<path fill="none" stroke="black" d="M586,-173.84C586,-173.84 586,-145.25 586,-145.25"/>
<polygon fill="black" stroke="black" points="589.5,-145.25 586,-135.25 582.5,-145.25 589.5,-145.25"/>
</g>
<!-- /Users/mmoscato/nasa/polycarp/gitlab__master/PVS/PolyCARP_analysis/framac_wp -->
<g id="node3" class="node">
<title>/Users/mmoscato/nasa/polycarp/gitlab__master/PVS/PolyCARP_analysis/framac_wp</title>
<polygon fill="#fcfcd7" stroke="black" points="491,-135 413,-135 413,-99 491,-99 491,-135"/>
<text text-anchor="middle" x="452" y="-113.3" font-family="Times,serif" font-size="14.00">framac_wp</text>
</g>
<!-- /Users/mmoscato/nasa/polycarp/gitlab__master/PVS/PolyCARP_analysis&#45;&gt;/Users/mmoscato/nasa/polycarp/gitlab__master/PVS/PolyCARP_analysis/framac_wp -->
<g id="edge11" class="edge">
<title>/Users/mmoscato/nasa/polycarp/gitlab__master/PVS/PolyCARP_analysis&#45;&gt;/Users/mmoscato/nasa/polycarp/gitlab__master/PVS/PolyCARP_analysis/framac_wp</title>
<path fill="none" stroke="black" d="M528.75,-173.84C528.75,-151.65 528.75,-117 528.75,-117 528.75,-117 501.27,-117 501.27,-117"/>
<polygon fill="black" stroke="black" points="501.27,-113.5 491.27,-117 501.27,-120.5 501.27,-113.5"/>
</g>
<!-- /Users/mmoscato/nasa/polycarp/gitlab__master/PVS/PolyCARP_analysis&#45;&gt;/Users/mmoscato/nasa/pvslib/pvslib&#45;github/analysis -->
<g id="edge12" class="edge">
<title>/Users/mmoscato/nasa/polycarp/gitlab__master/PVS/PolyCARP_analysis&#45;&gt;/Users/mmoscato/nasa/pvslib/pvslib&#45;github/analysis</title>
<path fill="none" stroke="black" d="M649.56,-183C698.55,-183 758,-183 758,-183 758,-183 758,-62.27 758,-62.27"/>
<polygon fill="black" stroke="black" points="761.5,-62.27 758,-52.27 754.5,-62.27 761.5,-62.27"/>
</g>
<!-- /Users/mmoscato/nasa/pvslib/pvslib&#45;github/float -->
<g id="node5" class="node">
<title>/Users/mmoscato/nasa/pvslib/pvslib&#45;github/float</title>
<polygon fill="#fcfcd7" stroke="black" points="178,-52 124,-52 124,-16 178,-16 178,-52"/>
<text text-anchor="middle" x="151" y="-30.3" font-family="Times,serif" font-size="14.00">float</text>
</g>
<!-- /Users/mmoscato/nasa/polycarp/gitlab__master/PVS/PolyCARP_analysis&#45;&gt;/Users/mmoscato/nasa/pvslib/pvslib&#45;github/float -->
<g id="edge13" class="edge">
<title>/Users/mmoscato/nasa/polycarp/gitlab__master/PVS/PolyCARP_analysis&#45;&gt;/Users/mmoscato/nasa/pvslib/pvslib&#45;github/float</title>
<path fill="none" stroke="black" d="M522.28,-198C401.46,-198 151,-198 151,-198 151,-198 151,-62.18 151,-62.18"/>
<polygon fill="black" stroke="black" points="154.5,-62.18 151,-52.18 147.5,-62.18 154.5,-62.18"/>
</g>
<!-- /Users/mmoscato/nasa/pvslib/pvslib&#45;github/interval_arith -->
<g id="node6" class="node">
<title>/Users/mmoscato/nasa/pvslib/pvslib&#45;github/interval_arith</title>
<polygon fill="#fcfcd7" stroke="black" points="105.5,-52 16.5,-52 16.5,-16 105.5,-16 105.5,-52"/>
<text text-anchor="middle" x="61" y="-30.3" font-family="Times,serif" font-size="14.00">interval_arith</text>
</g>
<!-- /Users/mmoscato/nasa/polycarp/gitlab__master/PVS/PolyCARP_analysis&#45;&gt;/Users/mmoscato/nasa/pvslib/pvslib&#45;github/interval_arith -->
<g id="edge14" class="edge">
<title>/Users/mmoscato/nasa/polycarp/gitlab__master/PVS/PolyCARP_analysis&#45;&gt;/Users/mmoscato/nasa/pvslib/pvslib&#45;github/interval_arith</title>
<path fill="none" stroke="black" d="M522.41,-204C382.64,-204 61,-204 61,-204 61,-204 61,-62.19 61,-62.19"/>
<polygon fill="black" stroke="black" points="64.5,-62.19 61,-52.19 57.5,-62.19 64.5,-62.19"/>
</g>
<!-- /Users/mmoscato/nasa/polycarp/gitlab__master/PVS/PolyCARP_analysis&#45;&gt;/Users/mmoscato/nasa/pvslib/pvslib&#45;github/ints -->
<g id="edge15" class="edge">
<title>/Users/mmoscato/nasa/polycarp/gitlab__master/PVS/PolyCARP_analysis&#45;&gt;/Users/mmoscato/nasa/pvslib/pvslib&#45;github/ints</title>
<path fill="none" stroke="black" d="M649.67,-192C722.56,-192 832,-192 832,-192 832,-192 832,-62.12 832,-62.12"/>
<polygon fill="black" stroke="black" points="835.5,-62.12 832,-52.12 828.5,-62.12 835.5,-62.12"/>
</g>
<!-- /Users/mmoscato/nasa/pvslib/pvslib&#45;github/lnexp -->
<g id="node8" class="node">
<title>/Users/mmoscato/nasa/pvslib/pvslib&#45;github/lnexp</title>
<polygon fill="#fcfcd7" stroke="black" points="250,-52 196,-52 196,-16 250,-16 250,-52"/>
<text text-anchor="middle" x="223" y="-30.3" font-family="Times,serif" font-size="14.00">lnexp</text>
</g>
<!-- /Users/mmoscato/nasa/polycarp/gitlab__master/PVS/PolyCARP_analysis&#45;&gt;/Users/mmoscato/nasa/pvslib/pvslib&#45;github/lnexp -->
<g id="edge16" class="edge">
<title>/Users/mmoscato/nasa/polycarp/gitlab__master/PVS/PolyCARP_analysis&#45;&gt;/Users/mmoscato/nasa/pvslib/pvslib&#45;github/lnexp</title>
<path fill="none" stroke="black" d="M522.35,-192C418.25,-192 223,-192 223,-192 223,-192 223,-62.12 223,-62.12"/>
<polygon fill="black" stroke="black" points="226.5,-62.12 223,-52.12 219.5,-62.12 226.5,-62.12"/>
</g>
<!-- /Users/mmoscato/nasa/polycarp/gitlab__master/PVS/PolyCARP_analysis&#45;&gt;/Users/mmoscato/nasa/pvslib/pvslib&#45;github/orders -->
<g id="edge17" class="edge">
<title>/Users/mmoscato/nasa/polycarp/gitlab__master/PVS/PolyCARP_analysis&#45;&gt;/Users/mmoscato/nasa/pvslib/pvslib&#45;github/orders</title>
<path fill="none" stroke="black" d="M522.38,-186C434.32,-186 286,-186 286,-186 286,-186 286,-62.03 286,-62.03"/>
<polygon fill="black" stroke="black" points="289.5,-62.03 286,-52.03 282.5,-62.03 289.5,-62.03"/>
</g>
<!-- /Users/mmoscato/nasa/polycarp/gitlab__master/PVS/PolyCARP_analysis&#45;&gt;/Users/mmoscato/nasa/pvslib/pvslib&#45;github/reals -->
<g id="edge18" class="edge">
<title>/Users/mmoscato/nasa/polycarp/gitlab__master/PVS/PolyCARP_analysis&#45;&gt;/Users/mmoscato/nasa/pvslib/pvslib&#45;github/reals</title>
<path fill="none" stroke="black" d="M522.49,-180C455.03,-180 358,-180 358,-180 358,-180 358,-62.2 358,-62.2"/>
<polygon fill="black" stroke="black" points="361.5,-62.2 358,-52.2 354.5,-62.2 361.5,-62.2"/>
</g>
<!-- /Users/mmoscato/nasa/polycarp/gitlab__master/PVS/PolyCARP_analysis&#45;&gt;/Users/mmoscato/nasa/pvslib/pvslib&#45;github/series -->
<g id="edge19" class="edge">
<title>/Users/mmoscato/nasa/polycarp/gitlab__master/PVS/PolyCARP_analysis&#45;&gt;/Users/mmoscato/nasa/pvslib/pvslib&#45;github/series</title>
<path fill="none" stroke="black" d="M535,-174C535,-140.06 535,-70 535,-70 535,-70 430.67,-70 430.67,-70 430.67,-70 430.67,-62.42 430.67,-62.42"/>
<polygon fill="black" stroke="black" points="434.17,-62.42 430.67,-52.42 427.17,-62.42 434.17,-62.42"/>
</g>
<!-- /Users/mmoscato/nasa/polycarp/gitlab__master/PVS/PolyCARP_analysis&#45;&gt;/Users/mmoscato/nasa/pvslib/pvslib&#45;github/structures -->
<g id="edge20" class="edge">
<title>/Users/mmoscato/nasa/polycarp/gitlab__master/PVS/PolyCARP_analysis&#45;&gt;/Users/mmoscato/nasa/pvslib/pvslib&#45;github/structures</title>
<path fill="none" stroke="black" d="M541.25,-173.88C541.25,-173.88 541.25,-62.4 541.25,-62.4"/>
<polygon fill="black" stroke="black" points="544.75,-62.4 541.25,-52.4 537.75,-62.4 544.75,-62.4"/>
</g>
<!-- /Users/mmoscato/nasa/polycarp/gitlab__master/PVS/PolyCARP_analysis&#45;&gt;/Users/mmoscato/nasa/pvslib/pvslib&#45;github/trig -->
<g id="edge21" class="edge">
<title>/Users/mmoscato/nasa/polycarp/gitlab__master/PVS/PolyCARP_analysis&#45;&gt;/Users/mmoscato/nasa/pvslib/pvslib&#45;github/trig</title>
<path fill="none" stroke="black" d="M632,-173.97C632,-133.7 632,-40 632,-40 632,-40 631.43,-40 631.43,-40"/>
<polygon fill="black" stroke="black" points="636.25,-36.5 626.25,-40 636.25,-43.5 636.25,-36.5"/>
</g>
<!-- /Users/mmoscato/nasa/polycarp/gitlab__master/PVS/PolyCARP_analysis&#45;&gt;/Users/mmoscato/nasa/pvslib/pvslib&#45;github/vectors -->
<g id="edge22" class="edge">
<title>/Users/mmoscato/nasa/polycarp/gitlab__master/PVS/PolyCARP_analysis&#45;&gt;/Users/mmoscato/nasa/pvslib/pvslib&#45;github/vectors</title>
<path fill="none" stroke="black" d="M638,-173.82C638,-131.12 638,-28 638,-28 638,-28 638.59,-28 638.59,-28"/>
<polygon fill="black" stroke="black" points="633.92,-31.5 643.92,-28 633.92,-24.5 633.92,-31.5"/>
</g>
<!-- /Users/mmoscato/nasa/polycarp/gitlab__master/PVS/PolyCARP_analysis&#45;&gt;/Users/mmoscato/pvs/7.1.0&#45;ix86&#45;MacOSX&#45;allegro/lib/finite_sets -->
<g id="edge23" class="edge">
<title>/Users/mmoscato/nasa/polycarp/gitlab__master/PVS/PolyCARP_analysis&#45;&gt;/Users/mmoscato/pvs/7.1.0&#45;ix86&#45;MacOSX&#45;allegro/lib/finite_sets</title>
<path fill="none" stroke="black" d="M649.56,-201C746.92,-201 921.83,-201 921.83,-201 921.83,-201 921.83,-62.19 921.83,-62.19"/>
<polygon fill="black" stroke="black" points="925.33,-62.19 921.83,-52.19 918.33,-62.19 925.33,-62.19"/>
</g>
</g>
</svg>
