<?xml version="1.0" encoding="UTF-8" standalone="no"?>
<!DOCTYPE svg PUBLIC "-//W3C//DTD SVG 1.1//EN"
 "http://www.w3.org/Graphics/SVG/1.1/DTD/svg11.dtd">
<!-- Generated by graphviz version 2.44.1 (20200629.0846)
 -->
<!-- Title: FM2019 Pages: 1 -->
<svg width="718pt" height="257pt"
 viewBox="0.00 0.00 718.00 257.00" xmlns="http://www.w3.org/2000/svg" xmlns:xlink="http://www.w3.org/1999/xlink">
<g id="graph0" class="graph" transform="scale(1 1) rotate(0) translate(4 253)">
<title>FM2019</title>
<polygon fill="white" stroke="transparent" points="-4,4 -4,-253 714,-253 714,4 -4,4"/>
<g id="clust1" class="cluster">
<title>cluster_FM2019</title>
<polygon fill="none" stroke="black" points="223,-91 223,-166 317,-166 317,-91 223,-91"/>
<text text-anchor="middle" x="270" y="-150.8" font-family="Times,serif" font-size="14.00">FM2019</text>
</g>
<g id="clust2" class="cluster">
<title>cluster_NASALib</title>
<polygon fill="none" stroke="black" points="8,-8 8,-83 606,-83 606,-8 8,-8"/>
<text text-anchor="middle" x="307" y="-67.8" font-family="Times,serif" font-size="14.00">NASALib</text>
</g>
<g id="clust3" class="cluster">
<title>cluster_PVS Prelude</title>
<polygon fill="none" stroke="black" points="614,-8 614,-83 702,-83 702,-8 614,-8"/>
<text text-anchor="middle" x="658" y="-67.8" font-family="Times,serif" font-size="14.00">PVS Prelude</text>
</g>
<g id="clust4" class="cluster">
<title>cluster_PolyCARP</title>
<polygon fill="none" stroke="black" points="357,-91 357,-241 451,-241 451,-91 357,-91"/>
<text text-anchor="middle" x="404" y="-225.8" font-family="Times,serif" font-size="14.00">PolyCARP</text>
</g>
<!-- /Users/mmoscato/nasa/polycarp/gitlab__master/PVS/FM2019 -->
<g id="node1" class="node">
<title>/Users/mmoscato/nasa/polycarp/gitlab__master/PVS/FM2019</title>
<polygon fill="#f7e28d" stroke="black" points="436,-210 372,-210 372,-174 436,-174 436,-210"/>
<text text-anchor="middle" x="404" y="-188.3" font-family="Times,serif" font-size="14.00">FM2019</text>
</g>
<!-- /Users/mmoscato/nasa/polycarp/gitlab__master/PVS/FM2019/framac_wp -->
<g id="node2" class="node">
<title>/Users/mmoscato/nasa/polycarp/gitlab__master/PVS/FM2019/framac_wp</title>
<polygon fill="#fcfcd7" stroke="black" points="309,-135 231,-135 231,-99 309,-99 309,-135"/>
<text text-anchor="middle" x="270" y="-113.3" font-family="Times,serif" font-size="14.00">framac_wp</text>
</g>
<!-- /Users/mmoscato/nasa/polycarp/gitlab__master/PVS/FM2019&#45;&gt;/Users/mmoscato/nasa/polycarp/gitlab__master/PVS/FM2019/framac_wp -->
<g id="edge1" class="edge">
<title>/Users/mmoscato/nasa/polycarp/gitlab__master/PVS/FM2019&#45;&gt;/Users/mmoscato/nasa/polycarp/gitlab__master/PVS/FM2019/framac_wp</title>
<path fill="none" stroke="black" d="M371.9,-187C332.26,-187 270,-187 270,-187 270,-187 270,-145.03 270,-145.03"/>
<polygon fill="black" stroke="black" points="273.5,-145.03 270,-135.03 266.5,-145.03 273.5,-145.03"/>
</g>
<!-- /Users/mmoscato/nasa/polycarp/gitlab__master/PVS/PolyCARP -->
<g id="node3" class="node">
<title>/Users/mmoscato/nasa/polycarp/gitlab__master/PVS/PolyCARP</title>
<polygon fill="#fcfcd7" stroke="black" points="442.5,-135 365.5,-135 365.5,-99 442.5,-99 442.5,-135"/>
<text text-anchor="middle" x="404" y="-113.3" font-family="Times,serif" font-size="14.00">PolyCARP</text>
</g>
<!-- /Users/mmoscato/nasa/polycarp/gitlab__master/PVS/FM2019&#45;&gt;/Users/mmoscato/nasa/polycarp/gitlab__master/PVS/PolyCARP -->
<g id="edge2" class="edge">
<title>/Users/mmoscato/nasa/polycarp/gitlab__master/PVS/FM2019&#45;&gt;/Users/mmoscato/nasa/polycarp/gitlab__master/PVS/PolyCARP</title>
<path fill="none" stroke="black" d="M404,-173.84C404,-173.84 404,-145.25 404,-145.25"/>
<polygon fill="black" stroke="black" points="407.5,-145.25 404,-135.25 400.5,-145.25 407.5,-145.25"/>
</g>
<!-- /Users/mmoscato/nasa/pvslib/pvslib&#45;github/analysis -->
<g id="node4" class="node">
<title>/Users/mmoscato/nasa/pvslib/pvslib&#45;github/analysis</title>
<polygon fill="#fcfcd7" stroke="black" points="598,-52 538,-52 538,-16 598,-16 598,-52"/>
<text text-anchor="middle" x="568" y="-30.3" font-family="Times,serif" font-size="14.00">analysis</text>
</g>
<!-- /Users/mmoscato/nasa/polycarp/gitlab__master/PVS/FM2019&#45;&gt;/Users/mmoscato/nasa/pvslib/pvslib&#45;github/analysis -->
<g id="edge3" class="edge">
<title>/Users/mmoscato/nasa/polycarp/gitlab__master/PVS/FM2019&#45;&gt;/Users/mmoscato/nasa/pvslib/pvslib&#45;github/analysis</title>
<path fill="none" stroke="black" d="M436.32,-192C486.64,-192 578,-192 578,-192 578,-192 578,-62.12 578,-62.12"/>
<polygon fill="black" stroke="black" points="581.5,-62.12 578,-52.12 574.5,-62.12 581.5,-62.12"/>
</g>
<!-- /Users/mmoscato/nasa/pvslib/pvslib&#45;github/float -->
<g id="node5" class="node">
<title>/Users/mmoscato/nasa/pvslib/pvslib&#45;github/float</title>
<polygon fill="#fcfcd7" stroke="black" points="142,-52 88,-52 88,-16 142,-16 142,-52"/>
<text text-anchor="middle" x="115" y="-30.3" font-family="Times,serif" font-size="14.00">float</text>
</g>
<!-- /Users/mmoscato/nasa/polycarp/gitlab__master/PVS/FM2019&#45;&gt;/Users/mmoscato/nasa/pvslib/pvslib&#45;github/float -->
<g id="edge4" class="edge">
<title>/Users/mmoscato/nasa/polycarp/gitlab__master/PVS/FM2019&#45;&gt;/Users/mmoscato/nasa/pvslib/pvslib&#45;github/float</title>
<path fill="none" stroke="black" d="M371.97,-201C296.72,-201 115,-201 115,-201 115,-201 115,-62.19 115,-62.19"/>
<polygon fill="black" stroke="black" points="118.5,-62.19 115,-52.19 111.5,-62.19 118.5,-62.19"/>
</g>
<!-- /Users/mmoscato/nasa/pvslib/pvslib&#45;github/ints -->
<g id="node6" class="node">
<title>/Users/mmoscato/nasa/pvslib/pvslib&#45;github/ints</title>
<polygon fill="#fcfcd7" stroke="black" points="70,-52 16,-52 16,-16 70,-16 70,-52"/>
<text text-anchor="middle" x="43" y="-30.3" font-family="Times,serif" font-size="14.00">ints</text>
</g>
<!-- /Users/mmoscato/nasa/polycarp/gitlab__master/PVS/FM2019&#45;&gt;/Users/mmoscato/nasa/pvslib/pvslib&#45;github/ints -->
<g id="edge5" class="edge">
<title>/Users/mmoscato/nasa/polycarp/gitlab__master/PVS/FM2019&#45;&gt;/Users/mmoscato/nasa/pvslib/pvslib&#45;github/ints</title>
<path fill="none" stroke="black" d="M371.81,-205C281.79,-205 34,-205 34,-205 34,-205 34,-62.3 34,-62.3"/>
<polygon fill="black" stroke="black" points="37.5,-62.3 34,-52.3 30.5,-62.3 37.5,-62.3"/>
</g>
<!-- /Users/mmoscato/nasa/pvslib/pvslib&#45;github/lnexp -->
<g id="node7" class="node">
<title>/Users/mmoscato/nasa/pvslib/pvslib&#45;github/lnexp</title>
<polygon fill="#fcfcd7" stroke="black" points="214,-52 160,-52 160,-16 214,-16 214,-52"/>
<text text-anchor="middle" x="187" y="-30.3" font-family="Times,serif" font-size="14.00">lnexp</text>
</g>
<!-- /Users/mmoscato/nasa/polycarp/gitlab__master/PVS/FM2019&#45;&gt;/Users/mmoscato/nasa/pvslib/pvslib&#45;github/lnexp -->
<g id="edge6" class="edge">
<title>/Users/mmoscato/nasa/polycarp/gitlab__master/PVS/FM2019&#45;&gt;/Users/mmoscato/nasa/pvslib/pvslib&#45;github/lnexp</title>
<path fill="none" stroke="black" d="M371.98,-196C311.62,-196 187,-196 187,-196 187,-196 187,-62.27 187,-62.27"/>
<polygon fill="black" stroke="black" points="190.5,-62.27 187,-52.27 183.5,-62.27 190.5,-62.27"/>
</g>
<!-- /Users/mmoscato/nasa/pvslib/pvslib&#45;github/reals -->
<g id="node8" class="node">
<title>/Users/mmoscato/nasa/pvslib/pvslib&#45;github/reals</title>
<polygon fill="#fcfcd7" stroke="black" points="286,-52 232,-52 232,-16 286,-16 286,-52"/>
<text text-anchor="middle" x="259" y="-30.3" font-family="Times,serif" font-size="14.00">reals</text>
</g>
<!-- /Users/mmoscato/nasa/polycarp/gitlab__master/PVS/FM2019&#45;&gt;/Users/mmoscato/nasa/pvslib/pvslib&#45;github/reals -->
<g id="edge7" class="edge">
<title>/Users/mmoscato/nasa/polycarp/gitlab__master/PVS/FM2019&#45;&gt;/Users/mmoscato/nasa/pvslib/pvslib&#45;github/reals</title>
<path fill="none" stroke="black" d="M371.97,-192C319.86,-192 222.5,-192 222.5,-192 222.5,-192 222.5,-34 222.5,-34 222.5,-34 223.42,-34 223.42,-34"/>
<polygon fill="black" stroke="black" points="221.71,-37.5 231.71,-34 221.71,-30.5 221.71,-37.5"/>
</g>
<!-- /Users/mmoscato/nasa/pvslib/pvslib&#45;github/series -->
<g id="node9" class="node">
<title>/Users/mmoscato/nasa/pvslib/pvslib&#45;github/series</title>
<polygon fill="#fcfcd7" stroke="black" points="358,-52 304,-52 304,-16 358,-16 358,-52"/>
<text text-anchor="middle" x="331" y="-30.3" font-family="Times,serif" font-size="14.00">series</text>
</g>
<!-- /Users/mmoscato/nasa/polycarp/gitlab__master/PVS/FM2019&#45;&gt;/Users/mmoscato/nasa/pvslib/pvslib&#45;github/series -->
<g id="edge8" class="edge">
<title>/Users/mmoscato/nasa/polycarp/gitlab__master/PVS/FM2019&#45;&gt;/Users/mmoscato/nasa/pvslib/pvslib&#45;github/series</title>
<path fill="none" stroke="black" d="M371.64,-183C353.11,-183 333.5,-183 333.5,-183 333.5,-183 333.5,-62.27 333.5,-62.27"/>
<polygon fill="black" stroke="black" points="337,-62.27 333.5,-52.27 330,-62.27 337,-62.27"/>
</g>
<!-- /Users/mmoscato/nasa/pvslib/pvslib&#45;github/structures -->
<g id="node10" class="node">
<title>/Users/mmoscato/nasa/pvslib/pvslib&#45;github/structures</title>
<polygon fill="#fcfcd7" stroke="black" points="445.5,-52 376.5,-52 376.5,-16 445.5,-16 445.5,-52"/>
<text text-anchor="middle" x="411" y="-30.3" font-family="Times,serif" font-size="14.00">structures</text>
</g>
<!-- /Users/mmoscato/nasa/polycarp/gitlab__master/PVS/FM2019&#45;&gt;/Users/mmoscato/nasa/pvslib/pvslib&#45;github/structures -->
<g id="edge9" class="edge">
<title>/Users/mmoscato/nasa/polycarp/gitlab__master/PVS/FM2019&#45;&gt;/Users/mmoscato/nasa/pvslib/pvslib&#45;github/structures</title>
<path fill="none" stroke="black" d="M371.98,-178C366.08,-178 361.75,-178 361.75,-178 361.75,-178 361.75,-40 361.75,-40 361.75,-40 366.26,-40 366.26,-40"/>
<polygon fill="black" stroke="black" points="366.26,-43.5 376.26,-40 366.26,-36.5 366.26,-43.5"/>
</g>
<!-- /Users/mmoscato/nasa/pvslib/pvslib&#45;github/vectors -->
<g id="node11" class="node">
<title>/Users/mmoscato/nasa/pvslib/pvslib&#45;github/vectors</title>
<polygon fill="#fcfcd7" stroke="black" points="520,-52 464,-52 464,-16 520,-16 520,-52"/>
<text text-anchor="middle" x="492" y="-30.3" font-family="Times,serif" font-size="14.00">vectors</text>
</g>
<!-- /Users/mmoscato/nasa/polycarp/gitlab__master/PVS/FM2019&#45;&gt;/Users/mmoscato/nasa/pvslib/pvslib&#45;github/vectors -->
<g id="edge10" class="edge">
<title>/Users/mmoscato/nasa/polycarp/gitlab__master/PVS/FM2019&#45;&gt;/Users/mmoscato/nasa/pvslib/pvslib&#45;github/vectors</title>
<path fill="none" stroke="black" d="M436.14,-183C464.49,-183 501.33,-183 501.33,-183 501.33,-183 501.33,-62.27 501.33,-62.27"/>
<polygon fill="black" stroke="black" points="504.83,-62.27 501.33,-52.27 497.83,-62.27 504.83,-62.27"/>
</g>
<!-- /Users/mmoscato/pvs/7.1.0&#45;ix86&#45;MacOSX&#45;allegro/lib/finite_sets -->
<g id="node12" class="node">
<title>/Users/mmoscato/pvs/7.1.0&#45;ix86&#45;MacOSX&#45;allegro/lib/finite_sets</title>
<polygon fill="#fcfcd7" stroke="black" points="693.5,-52 622.5,-52 622.5,-16 693.5,-16 693.5,-52"/>
<text text-anchor="middle" x="658" y="-30.3" font-family="Times,serif" font-size="14.00">finite_sets</text>
</g>
<!-- /Users/mmoscato/nasa/polycarp/gitlab__master/PVS/FM2019&#45;&gt;/Users/mmoscato/pvs/7.1.0&#45;ix86&#45;MacOSX&#45;allegro/lib/finite_sets -->
<g id="edge11" class="edge">
<title>/Users/mmoscato/nasa/polycarp/gitlab__master/PVS/FM2019&#45;&gt;/Users/mmoscato/pvs/7.1.0&#45;ix86&#45;MacOSX&#45;allegro/lib/finite_sets</title>
<path fill="none" stroke="black" d="M436.07,-201C506.77,-201 669.83,-201 669.83,-201 669.83,-201 669.83,-62.19 669.83,-62.19"/>
<polygon fill="black" stroke="black" points="673.33,-62.19 669.83,-52.19 666.33,-62.19 673.33,-62.19"/>
</g>
<!-- /Users/mmoscato/nasa/polycarp/gitlab__master/PVS/PolyCARP&#45;&gt;/Users/mmoscato/nasa/pvslib/pvslib&#45;github/analysis -->
<g id="edge12" class="edge">
<title>/Users/mmoscato/nasa/polycarp/gitlab__master/PVS/PolyCARP&#45;&gt;/Users/mmoscato/nasa/pvslib/pvslib&#45;github/analysis</title>
<path fill="none" stroke="black" d="M442.86,-117C488.48,-117 558,-117 558,-117 558,-117 558,-62.01 558,-62.01"/>
<polygon fill="black" stroke="black" points="561.5,-62.01 558,-52.01 554.5,-62.01 561.5,-62.01"/>
</g>
<!-- /Users/mmoscato/nasa/polycarp/gitlab__master/PVS/PolyCARP&#45;&gt;/Users/mmoscato/nasa/pvslib/pvslib&#45;github/ints -->
<g id="edge13" class="edge">
<title>/Users/mmoscato/nasa/polycarp/gitlab__master/PVS/PolyCARP&#45;&gt;/Users/mmoscato/nasa/pvslib/pvslib&#45;github/ints</title>
<path fill="none" stroke="black" d="M368.25,-98.81C368.25,-90.72 368.25,-83 368.25,-83 368.25,-83 52,-83 52,-83 52,-83 52,-62.25 52,-62.25"/>
<polygon fill="black" stroke="black" points="55.5,-62.25 52,-52.25 48.5,-62.25 55.5,-62.25"/>
</g>
<!-- /Users/mmoscato/nasa/polycarp/gitlab__master/PVS/PolyCARP&#45;&gt;/Users/mmoscato/nasa/pvslib/pvslib&#45;github/reals -->
<g id="edge14" class="edge">
<title>/Users/mmoscato/nasa/polycarp/gitlab__master/PVS/PolyCARP&#45;&gt;/Users/mmoscato/nasa/pvslib/pvslib&#45;github/reals</title>
<path fill="none" stroke="black" d="M371,-98.95C371,-84.63 371,-67 371,-67 371,-67 259,-67 259,-67 259,-67 259,-62.04 259,-62.04"/>
<polygon fill="black" stroke="black" points="262.5,-62.04 259,-52.04 255.5,-62.04 262.5,-62.04"/>
</g>
<!-- /Users/mmoscato/nasa/polycarp/gitlab__master/PVS/PolyCARP&#45;&gt;/Users/mmoscato/nasa/pvslib/pvslib&#45;github/series -->
<g id="edge15" class="edge">
<title>/Users/mmoscato/nasa/polycarp/gitlab__master/PVS/PolyCARP&#45;&gt;/Users/mmoscato/nasa/pvslib/pvslib&#45;github/series</title>
<path fill="none" stroke="black" d="M373.75,-98.99C373.75,-72.98 373.75,-28 373.75,-28 373.75,-28 368.32,-28 368.32,-28"/>
<polygon fill="black" stroke="black" points="368.32,-24.5 358.32,-28 368.32,-31.5 368.32,-24.5"/>
</g>
<!-- /Users/mmoscato/nasa/polycarp/gitlab__master/PVS/PolyCARP&#45;&gt;/Users/mmoscato/nasa/pvslib/pvslib&#45;github/structures -->
<g id="edge16" class="edge">
<title>/Users/mmoscato/nasa/polycarp/gitlab__master/PVS/PolyCARP&#45;&gt;/Users/mmoscato/nasa/pvslib/pvslib&#45;github/structures</title>
<path fill="none" stroke="black" d="M409.5,-98.99C409.5,-98.99 409.5,-62.26 409.5,-62.26"/>
<polygon fill="black" stroke="black" points="413,-62.26 409.5,-52.26 406,-62.26 413,-62.26"/>
</g>
<!-- /Users/mmoscato/nasa/polycarp/gitlab__master/PVS/PolyCARP&#45;&gt;/Users/mmoscato/nasa/pvslib/pvslib&#45;github/vectors -->
<g id="edge17" class="edge">
<title>/Users/mmoscato/nasa/polycarp/gitlab__master/PVS/PolyCARP&#45;&gt;/Users/mmoscato/nasa/pvslib/pvslib&#45;github/vectors</title>
<path fill="none" stroke="black" d="M442.87,-108C462.69,-108 482.67,-108 482.67,-108 482.67,-108 482.67,-62.29 482.67,-62.29"/>
<polygon fill="black" stroke="black" points="486.17,-62.29 482.67,-52.29 479.17,-62.29 486.17,-62.29"/>
</g>
<!-- /Users/mmoscato/nasa/polycarp/gitlab__master/PVS/PolyCARP&#45;&gt;/Users/mmoscato/pvs/7.1.0&#45;ix86&#45;MacOSX&#45;allegro/lib/finite_sets -->
<g id="edge18" class="edge">
<title>/Users/mmoscato/nasa/polycarp/gitlab__master/PVS/PolyCARP&#45;&gt;/Users/mmoscato/pvs/7.1.0&#45;ix86&#45;MacOSX&#45;allegro/lib/finite_sets</title>
<path fill="none" stroke="black" d="M442.64,-126C511.01,-126 646.17,-126 646.17,-126 646.17,-126 646.17,-62.18 646.17,-62.18"/>
<polygon fill="black" stroke="black" points="649.67,-62.18 646.17,-52.18 642.67,-62.18 649.67,-62.18"/>
</g>
</g>
</svg>
