<?xml version="1.0" encoding="UTF-8" standalone="no"?>
<!DOCTYPE svg PUBLIC "-//W3C//DTD SVG 1.1//EN"
 "http://www.w3.org/Graphics/SVG/1.1/DTD/svg11.dtd">
<!-- Generated by graphviz version 2.44.1 (20200629.0846)
 -->
<!-- Title: PolyCARP Pages: 1 -->
<svg width="1210pt" height="254pt"
 viewBox="0.00 0.00 1210.00 254.00" xmlns="http://www.w3.org/2000/svg" xmlns:xlink="http://www.w3.org/1999/xlink">
<g id="graph0" class="graph" transform="scale(1 1) rotate(0) translate(4 250)">
<title>PolyCARP</title>
<polygon fill="white" stroke="transparent" points="-4,4 -4,-250 1206,-250 1206,4 -4,4"/>
<g id="clust1" class="cluster">
<title>cluster_NASALib</title>
<polygon fill="none" stroke="black" points="8,-8 8,-83 1098,-83 1098,-8 8,-8"/>
<text text-anchor="middle" x="553" y="-67.8" font-family="Times,serif" font-size="14.00">NASALib</text>
</g>
<g id="clust2" class="cluster">
<title>cluster_PVS Prelude</title>
<polygon fill="none" stroke="black" points="1106,-8 1106,-83 1194,-83 1194,-8 1106,-8"/>
<text text-anchor="middle" x="1150" y="-67.8" font-family="Times,serif" font-size="14.00">PVS Prelude</text>
</g>
<g id="clust3" class="cluster">
<title>cluster_PolyCARP</title>
<polygon fill="none" stroke="black" points="380,-91 380,-238 606,-238 606,-91 380,-91"/>
<text text-anchor="middle" x="493" y="-222.8" font-family="Times,serif" font-size="14.00">PolyCARP</text>
</g>
<!-- /Users/mmoscato/nasa/polycarp/gitlab__master/PVS/FM2019 -->
<g id="node1" class="node">
<title>/Users/mmoscato/nasa/polycarp/gitlab__master/PVS/FM2019</title>
<polygon fill="#fcfcd7" stroke="black" points="598,-207 534,-207 534,-171 598,-171 598,-207"/>
<text text-anchor="middle" x="566" y="-185.3" font-family="Times,serif" font-size="14.00">FM2019</text>
</g>
<!-- /Users/mmoscato/nasa/polycarp/gitlab__master/PVS/PolyCARP -->
<g id="node2" class="node">
<title>/Users/mmoscato/nasa/polycarp/gitlab__master/PVS/PolyCARP</title>
<polygon fill="#f7e28d" stroke="black" points="537.5,-135 460.5,-135 460.5,-99 537.5,-99 537.5,-135"/>
<text text-anchor="middle" x="499" y="-113.3" font-family="Times,serif" font-size="14.00">PolyCARP</text>
</g>
<!-- /Users/mmoscato/nasa/polycarp/gitlab__master/PVS/FM2019&#45;&gt;/Users/mmoscato/nasa/polycarp/gitlab__master/PVS/PolyCARP -->
<g id="edge1" class="edge">
<title>/Users/mmoscato/nasa/polycarp/gitlab__master/PVS/FM2019&#45;&gt;/Users/mmoscato/nasa/polycarp/gitlab__master/PVS/PolyCARP</title>
<path fill="none" stroke="black" d="M533.9,-189C528.58,-189 524.75,-189 524.75,-189 524.75,-189 524.75,-145.17 524.75,-145.17"/>
<polygon fill="black" stroke="black" points="528.25,-145.17 524.75,-135.17 521.25,-145.17 528.25,-145.17"/>
</g>
<!-- /Users/mmoscato/nasa/pvslib/pvslib&#45;github/analysis -->
<g id="node6" class="node">
<title>/Users/mmoscato/nasa/pvslib/pvslib&#45;github/analysis</title>
<polygon fill="#fcfcd7" stroke="black" points="382,-52 322,-52 322,-16 382,-16 382,-52"/>
<text text-anchor="middle" x="352" y="-30.3" font-family="Times,serif" font-size="14.00">analysis</text>
</g>
<!-- /Users/mmoscato/nasa/polycarp/gitlab__master/PVS/FM2019&#45;&gt;/Users/mmoscato/nasa/pvslib/pvslib&#45;github/analysis -->
<g id="edge2" class="edge">
<title>/Users/mmoscato/nasa/polycarp/gitlab__master/PVS/FM2019&#45;&gt;/Users/mmoscato/nasa/pvslib/pvslib&#45;github/analysis</title>
<path fill="none" stroke="black" d="M571,-170.94C571,-138.79 571,-75 571,-75 571,-75 362,-75 362,-75 362,-75 362,-62.1 362,-62.1"/>
<polygon fill="black" stroke="black" points="365.5,-62.1 362,-52.1 358.5,-62.1 365.5,-62.1"/>
</g>
<!-- /Users/mmoscato/nasa/pvslib/pvslib&#45;github/ints -->
<g id="node8" class="node">
<title>/Users/mmoscato/nasa/pvslib/pvslib&#45;github/ints</title>
<polygon fill="#fcfcd7" stroke="black" points="454,-52 400,-52 400,-16 454,-16 454,-52"/>
<text text-anchor="middle" x="427" y="-30.3" font-family="Times,serif" font-size="14.00">ints</text>
</g>
<!-- /Users/mmoscato/nasa/polycarp/gitlab__master/PVS/FM2019&#45;&gt;/Users/mmoscato/nasa/pvslib/pvslib&#45;github/ints -->
<g id="edge3" class="edge">
<title>/Users/mmoscato/nasa/polycarp/gitlab__master/PVS/FM2019&#45;&gt;/Users/mmoscato/nasa/pvslib/pvslib&#45;github/ints</title>
<path fill="none" stroke="black" d="M577.75,-171C577.75,-137.06 577.75,-67 577.75,-67 577.75,-67 440.5,-67 440.5,-67 440.5,-67 440.5,-62.04 440.5,-62.04"/>
<polygon fill="black" stroke="black" points="444,-62.04 440.5,-52.04 437,-62.04 444,-62.04"/>
</g>
<!-- /Users/mmoscato/nasa/pvslib/pvslib&#45;github/reals -->
<g id="node11" class="node">
<title>/Users/mmoscato/nasa/pvslib/pvslib&#45;github/reals</title>
<polygon fill="#fcfcd7" stroke="black" points="598,-52 544,-52 544,-16 598,-16 598,-52"/>
<text text-anchor="middle" x="571" y="-30.3" font-family="Times,serif" font-size="14.00">reals</text>
</g>
<!-- /Users/mmoscato/nasa/polycarp/gitlab__master/PVS/FM2019&#45;&gt;/Users/mmoscato/nasa/pvslib/pvslib&#45;github/reals -->
<g id="edge4" class="edge">
<title>/Users/mmoscato/nasa/polycarp/gitlab__master/PVS/FM2019&#45;&gt;/Users/mmoscato/nasa/pvslib/pvslib&#45;github/reals</title>
<path fill="none" stroke="black" d="M591.25,-170.92C591.25,-170.92 591.25,-62.45 591.25,-62.45"/>
<polygon fill="black" stroke="black" points="594.75,-62.45 591.25,-52.45 587.75,-62.45 594.75,-62.45"/>
</g>
<!-- /Users/mmoscato/nasa/pvslib/pvslib&#45;github/series -->
<g id="node12" class="node">
<title>/Users/mmoscato/nasa/pvslib/pvslib&#45;github/series</title>
<polygon fill="#fcfcd7" stroke="black" points="142,-52 88,-52 88,-16 142,-16 142,-52"/>
<text text-anchor="middle" x="115" y="-30.3" font-family="Times,serif" font-size="14.00">series</text>
</g>
<!-- /Users/mmoscato/nasa/polycarp/gitlab__master/PVS/FM2019&#45;&gt;/Users/mmoscato/nasa/pvslib/pvslib&#45;github/series -->
<g id="edge5" class="edge">
<title>/Users/mmoscato/nasa/polycarp/gitlab__master/PVS/FM2019&#45;&gt;/Users/mmoscato/nasa/pvslib/pvslib&#45;github/series</title>
<path fill="none" stroke="black" d="M557.5,-170.57C557.5,-142.18 557.5,-91 557.5,-91 557.5,-91 128.5,-91 128.5,-91 128.5,-91 128.5,-62.04 128.5,-62.04"/>
<polygon fill="black" stroke="black" points="132,-62.04 128.5,-52.04 125,-62.04 132,-62.04"/>
</g>
<!-- /Users/mmoscato/nasa/pvslib/pvslib&#45;github/structures -->
<g id="node13" class="node">
<title>/Users/mmoscato/nasa/pvslib/pvslib&#45;github/structures</title>
<polygon fill="#fcfcd7" stroke="black" points="229.5,-52 160.5,-52 160.5,-16 229.5,-16 229.5,-52"/>
<text text-anchor="middle" x="195" y="-30.3" font-family="Times,serif" font-size="14.00">structures</text>
</g>
<!-- /Users/mmoscato/nasa/polycarp/gitlab__master/PVS/FM2019&#45;&gt;/Users/mmoscato/nasa/pvslib/pvslib&#45;github/structures -->
<g id="edge6" class="edge">
<title>/Users/mmoscato/nasa/polycarp/gitlab__master/PVS/FM2019&#45;&gt;/Users/mmoscato/nasa/pvslib/pvslib&#45;github/structures</title>
<path fill="none" stroke="black" d="M550.75,-170.96C550.75,-158.44 550.75,-144 550.75,-144 550.75,-144 195,-144 195,-144 195,-144 195,-62.16 195,-62.16"/>
<polygon fill="black" stroke="black" points="198.5,-62.16 195,-52.16 191.5,-62.16 198.5,-62.16"/>
</g>
<!-- /Users/mmoscato/nasa/pvslib/pvslib&#45;github/vectors -->
<g id="node16" class="node">
<title>/Users/mmoscato/nasa/pvslib/pvslib&#45;github/vectors</title>
<polygon fill="#fcfcd7" stroke="black" points="304,-52 248,-52 248,-16 304,-16 304,-52"/>
<text text-anchor="middle" x="276" y="-30.3" font-family="Times,serif" font-size="14.00">vectors</text>
</g>
<!-- /Users/mmoscato/nasa/polycarp/gitlab__master/PVS/FM2019&#45;&gt;/Users/mmoscato/nasa/pvslib/pvslib&#45;github/vectors -->
<g id="edge7" class="edge">
<title>/Users/mmoscato/nasa/polycarp/gitlab__master/PVS/FM2019&#45;&gt;/Users/mmoscato/nasa/pvslib/pvslib&#45;github/vectors</title>
<path fill="none" stroke="black" d="M564.25,-170.54C564.25,-140.17 564.25,-83 564.25,-83 564.25,-83 290,-83 290,-83 290,-83 290,-62.25 290,-62.25"/>
<polygon fill="black" stroke="black" points="293.5,-62.25 290,-52.25 286.5,-62.25 293.5,-62.25"/>
</g>
<!-- /Users/mmoscato/pvs/7.1.0&#45;ix86&#45;MacOSX&#45;allegro/lib/finite_sets -->
<g id="node17" class="node">
<title>/Users/mmoscato/pvs/7.1.0&#45;ix86&#45;MacOSX&#45;allegro/lib/finite_sets</title>
<polygon fill="#fcfcd7" stroke="black" points="1185.5,-52 1114.5,-52 1114.5,-16 1185.5,-16 1185.5,-52"/>
<text text-anchor="middle" x="1150" y="-30.3" font-family="Times,serif" font-size="14.00">finite_sets</text>
</g>
<!-- /Users/mmoscato/nasa/polycarp/gitlab__master/PVS/FM2019&#45;&gt;/Users/mmoscato/pvs/7.1.0&#45;ix86&#45;MacOSX&#45;allegro/lib/finite_sets -->
<g id="edge8" class="edge">
<title>/Users/mmoscato/nasa/polycarp/gitlab__master/PVS/FM2019&#45;&gt;/Users/mmoscato/pvs/7.1.0&#45;ix86&#45;MacOSX&#45;allegro/lib/finite_sets</title>
<path fill="none" stroke="black" d="M598.35,-189C723.34,-189 1167.75,-189 1167.75,-189 1167.75,-189 1167.75,-62.08 1167.75,-62.08"/>
<polygon fill="black" stroke="black" points="1171.25,-62.08 1167.75,-52.08 1164.25,-62.08 1171.25,-62.08"/>
</g>
<!-- /Users/mmoscato/nasa/pvslib/pvslib&#45;github/ACCoRD -->
<g id="node4" class="node">
<title>/Users/mmoscato/nasa/pvslib/pvslib&#45;github/ACCoRD</title>
<polygon fill="#fcfcd7" stroke="black" points="982,-52 912,-52 912,-16 982,-16 982,-52"/>
<text text-anchor="middle" x="947" y="-30.3" font-family="Times,serif" font-size="14.00">ACCoRD</text>
</g>
<!-- /Users/mmoscato/nasa/polycarp/gitlab__master/PVS/PolyCARP&#45;&gt;/Users/mmoscato/nasa/pvslib/pvslib&#45;github/ACCoRD -->
<g id="edge9" class="edge">
<title>/Users/mmoscato/nasa/polycarp/gitlab__master/PVS/PolyCARP&#45;&gt;/Users/mmoscato/nasa/pvslib/pvslib&#45;github/ACCoRD</title>
<path fill="none" stroke="black" d="M537.58,-119C646.25,-119 947,-119 947,-119 947,-119 947,-62.03 947,-62.03"/>
<polygon fill="black" stroke="black" points="950.5,-62.03 947,-52.03 943.5,-62.03 950.5,-62.03"/>
</g>
<!-- /Users/mmoscato/nasa/pvslib/pvslib&#45;github/PVSioChecker -->
<g id="node5" class="node">
<title>/Users/mmoscato/nasa/pvslib/pvslib&#45;github/PVSioChecker</title>
<polygon fill="#fcfcd7" stroke="black" points="893.5,-52 796.5,-52 796.5,-16 893.5,-16 893.5,-52"/>
<text text-anchor="middle" x="845" y="-30.3" font-family="Times,serif" font-size="14.00">PVSioChecker</text>
</g>
<!-- /Users/mmoscato/nasa/polycarp/gitlab__master/PVS/PolyCARP&#45;&gt;/Users/mmoscato/nasa/pvslib/pvslib&#45;github/PVSioChecker -->
<g id="edge10" class="edge">
<title>/Users/mmoscato/nasa/polycarp/gitlab__master/PVS/PolyCARP&#45;&gt;/Users/mmoscato/nasa/pvslib/pvslib&#45;github/PVSioChecker</title>
<path fill="none" stroke="black" d="M537.68,-114C627.97,-114 845,-114 845,-114 845,-114 845,-62.15 845,-62.15"/>
<polygon fill="black" stroke="black" points="848.5,-62.15 845,-52.15 841.5,-62.15 848.5,-62.15"/>
</g>
<!-- /Users/mmoscato/nasa/polycarp/gitlab__master/PVS/PolyCARP&#45;&gt;/Users/mmoscato/nasa/pvslib/pvslib&#45;github/analysis -->
<g id="edge11" class="edge">
<title>/Users/mmoscato/nasa/polycarp/gitlab__master/PVS/PolyCARP&#45;&gt;/Users/mmoscato/nasa/pvslib/pvslib&#45;github/analysis</title>
<path fill="none" stroke="black" d="M460.19,-105C413.7,-105 342,-105 342,-105 342,-105 342,-62.28 342,-62.28"/>
<polygon fill="black" stroke="black" points="345.5,-62.28 342,-52.28 338.5,-62.28 345.5,-62.28"/>
</g>
<!-- /Users/mmoscato/nasa/pvslib/pvslib&#45;github/fast_approx -->
<g id="node7" class="node">
<title>/Users/mmoscato/nasa/pvslib/pvslib&#45;github/fast_approx</title>
<polygon fill="#fcfcd7" stroke="black" points="778,-52 698,-52 698,-16 778,-16 778,-52"/>
<text text-anchor="middle" x="738" y="-30.3" font-family="Times,serif" font-size="14.00">fast_approx</text>
</g>
<!-- /Users/mmoscato/nasa/polycarp/gitlab__master/PVS/PolyCARP&#45;&gt;/Users/mmoscato/nasa/pvslib/pvslib&#45;github/fast_approx -->
<g id="edge12" class="edge">
<title>/Users/mmoscato/nasa/polycarp/gitlab__master/PVS/PolyCARP&#45;&gt;/Users/mmoscato/nasa/pvslib/pvslib&#45;github/fast_approx</title>
<path fill="none" stroke="black" d="M537.67,-109C605.31,-109 738,-109 738,-109 738,-109 738,-62.16 738,-62.16"/>
<polygon fill="black" stroke="black" points="741.5,-62.16 738,-52.16 734.5,-62.16 741.5,-62.16"/>
</g>
<!-- /Users/mmoscato/nasa/polycarp/gitlab__master/PVS/PolyCARP&#45;&gt;/Users/mmoscato/nasa/pvslib/pvslib&#45;github/ints -->
<g id="edge13" class="edge">
<title>/Users/mmoscato/nasa/polycarp/gitlab__master/PVS/PolyCARP&#45;&gt;/Users/mmoscato/nasa/pvslib/pvslib&#45;github/ints</title>
<path fill="none" stroke="black" d="M466.25,-98.99C466.25,-74.58 466.25,-34 466.25,-34 466.25,-34 464.26,-34 464.26,-34"/>
<polygon fill="black" stroke="black" points="464.26,-30.5 454.26,-34 464.26,-37.5 464.26,-30.5"/>
</g>
<!-- /Users/mmoscato/nasa/pvslib/pvslib&#45;github/matrices -->
<g id="node9" class="node">
<title>/Users/mmoscato/nasa/pvslib/pvslib&#45;github/matrices</title>
<polygon fill="#fcfcd7" stroke="black" points="679.5,-52 616.5,-52 616.5,-16 679.5,-16 679.5,-52"/>
<text text-anchor="middle" x="648" y="-30.3" font-family="Times,serif" font-size="14.00">matrices</text>
</g>
<!-- /Users/mmoscato/nasa/polycarp/gitlab__master/PVS/PolyCARP&#45;&gt;/Users/mmoscato/nasa/pvslib/pvslib&#45;github/matrices -->
<g id="edge14" class="edge">
<title>/Users/mmoscato/nasa/polycarp/gitlab__master/PVS/PolyCARP&#45;&gt;/Users/mmoscato/nasa/pvslib/pvslib&#45;github/matrices</title>
<path fill="none" stroke="black" d="M537.76,-104C581.91,-104 648,-104 648,-104 648,-104 648,-62.03 648,-62.03"/>
<polygon fill="black" stroke="black" points="651.5,-62.03 648,-52.03 644.5,-62.03 651.5,-62.03"/>
</g>
<!-- /Users/mmoscato/nasa/pvslib/pvslib&#45;github/orders -->
<g id="node10" class="node">
<title>/Users/mmoscato/nasa/pvslib/pvslib&#45;github/orders</title>
<polygon fill="#fcfcd7" stroke="black" points="526,-52 472,-52 472,-16 526,-16 526,-52"/>
<text text-anchor="middle" x="499" y="-30.3" font-family="Times,serif" font-size="14.00">orders</text>
</g>
<!-- /Users/mmoscato/nasa/polycarp/gitlab__master/PVS/PolyCARP&#45;&gt;/Users/mmoscato/nasa/pvslib/pvslib&#45;github/orders -->
<g id="edge15" class="edge">
<title>/Users/mmoscato/nasa/polycarp/gitlab__master/PVS/PolyCARP&#45;&gt;/Users/mmoscato/nasa/pvslib/pvslib&#45;github/orders</title>
<path fill="none" stroke="black" d="M508,-98.99C508,-98.99 508,-62.26 508,-62.26"/>
<polygon fill="black" stroke="black" points="511.5,-62.26 508,-52.26 504.5,-62.26 511.5,-62.26"/>
</g>
<!-- /Users/mmoscato/nasa/polycarp/gitlab__master/PVS/PolyCARP&#45;&gt;/Users/mmoscato/nasa/pvslib/pvslib&#45;github/reals -->
<g id="edge16" class="edge">
<title>/Users/mmoscato/nasa/polycarp/gitlab__master/PVS/PolyCARP&#45;&gt;/Users/mmoscato/nasa/pvslib/pvslib&#45;github/reals</title>
<path fill="none" stroke="black" d="M531.75,-98.99C531.75,-74.58 531.75,-34 531.75,-34 531.75,-34 533.74,-34 533.74,-34"/>
<polygon fill="black" stroke="black" points="533.74,-37.5 543.74,-34 533.74,-30.5 533.74,-37.5"/>
</g>
<!-- /Users/mmoscato/nasa/polycarp/gitlab__master/PVS/PolyCARP&#45;&gt;/Users/mmoscato/nasa/pvslib/pvslib&#45;github/series -->
<g id="edge17" class="edge">
<title>/Users/mmoscato/nasa/polycarp/gitlab__master/PVS/PolyCARP&#45;&gt;/Users/mmoscato/nasa/pvslib/pvslib&#45;github/series</title>
<path fill="none" stroke="black" d="M460.42,-123C363.05,-123 115,-123 115,-123 115,-123 115,-62.01 115,-62.01"/>
<polygon fill="black" stroke="black" points="118.5,-62.01 115,-52.01 111.5,-62.01 118.5,-62.01"/>
</g>
<!-- /Users/mmoscato/nasa/polycarp/gitlab__master/PVS/PolyCARP&#45;&gt;/Users/mmoscato/nasa/pvslib/pvslib&#45;github/structures -->
<g id="edge18" class="edge">
<title>/Users/mmoscato/nasa/polycarp/gitlab__master/PVS/PolyCARP&#45;&gt;/Users/mmoscato/nasa/pvslib/pvslib&#45;github/structures</title>
<path fill="none" stroke="black" d="M460.33,-117C382.06,-117 212.25,-117 212.25,-117 212.25,-117 212.25,-62.01 212.25,-62.01"/>
<polygon fill="black" stroke="black" points="215.75,-62.01 212.25,-52.01 208.75,-62.01 215.75,-62.01"/>
</g>
<!-- /Users/mmoscato/nasa/pvslib/pvslib&#45;github/trig -->
<g id="node14" class="node">
<title>/Users/mmoscato/nasa/pvslib/pvslib&#45;github/trig</title>
<polygon fill="#fcfcd7" stroke="black" points="70,-52 16,-52 16,-16 70,-16 70,-52"/>
<text text-anchor="middle" x="43" y="-30.3" font-family="Times,serif" font-size="14.00">trig</text>
</g>
<!-- /Users/mmoscato/nasa/polycarp/gitlab__master/PVS/PolyCARP&#45;&gt;/Users/mmoscato/nasa/pvslib/pvslib&#45;github/trig -->
<g id="edge19" class="edge">
<title>/Users/mmoscato/nasa/polycarp/gitlab__master/PVS/PolyCARP&#45;&gt;/Users/mmoscato/nasa/pvslib/pvslib&#45;github/trig</title>
<path fill="none" stroke="black" d="M460.11,-129C351.36,-129 52,-129 52,-129 52,-129 52,-62.32 52,-62.32"/>
<polygon fill="black" stroke="black" points="55.5,-62.32 52,-52.32 48.5,-62.32 55.5,-62.32"/>
</g>
<!-- /Users/mmoscato/nasa/pvslib/pvslib&#45;github/vect_analysis -->
<g id="node15" class="node">
<title>/Users/mmoscato/nasa/pvslib/pvslib&#45;github/vect_analysis</title>
<polygon fill="#fcfcd7" stroke="black" points="1089.5,-52 1000.5,-52 1000.5,-16 1089.5,-16 1089.5,-52"/>
<text text-anchor="middle" x="1045" y="-30.3" font-family="Times,serif" font-size="14.00">vect_analysis</text>
</g>
<!-- /Users/mmoscato/nasa/polycarp/gitlab__master/PVS/PolyCARP&#45;&gt;/Users/mmoscato/nasa/pvslib/pvslib&#45;github/vect_analysis -->
<g id="edge20" class="edge">
<title>/Users/mmoscato/nasa/polycarp/gitlab__master/PVS/PolyCARP&#45;&gt;/Users/mmoscato/nasa/pvslib/pvslib&#45;github/vect_analysis</title>
<path fill="none" stroke="black" d="M537.83,-124C662.57,-124 1045,-124 1045,-124 1045,-124 1045,-62.21 1045,-62.21"/>
<polygon fill="black" stroke="black" points="1048.5,-62.21 1045,-52.21 1041.5,-62.21 1048.5,-62.21"/>
</g>
<!-- /Users/mmoscato/nasa/polycarp/gitlab__master/PVS/PolyCARP&#45;&gt;/Users/mmoscato/nasa/pvslib/pvslib&#45;github/vectors -->
<g id="edge21" class="edge">
<title>/Users/mmoscato/nasa/polycarp/gitlab__master/PVS/PolyCARP&#45;&gt;/Users/mmoscato/nasa/pvslib/pvslib&#45;github/vectors</title>
<path fill="none" stroke="black" d="M460.41,-111C396.59,-111 276,-111 276,-111 276,-111 276,-62.25 276,-62.25"/>
<polygon fill="black" stroke="black" points="279.5,-62.25 276,-52.25 272.5,-62.25 279.5,-62.25"/>
</g>
<!-- /Users/mmoscato/nasa/polycarp/gitlab__master/PVS/PolyCARP&#45;&gt;/Users/mmoscato/pvs/7.1.0&#45;ix86&#45;MacOSX&#45;allegro/lib/finite_sets -->
<g id="edge22" class="edge">
<title>/Users/mmoscato/nasa/polycarp/gitlab__master/PVS/PolyCARP&#45;&gt;/Users/mmoscato/pvs/7.1.0&#45;ix86&#45;MacOSX&#45;allegro/lib/finite_sets</title>
<path fill="none" stroke="black" d="M537.66,-129C675.15,-129 1132.25,-129 1132.25,-129 1132.25,-129 1132.25,-62.32 1132.25,-62.32"/>
<polygon fill="black" stroke="black" points="1135.75,-62.32 1132.25,-52.32 1128.75,-62.32 1135.75,-62.32"/>
</g>
<!-- /Users/mmoscato/nasa/polycarp/gitlab__master/PVS/PolyCARP_analysis -->
<g id="node3" class="node">
<title>/Users/mmoscato/nasa/polycarp/gitlab__master/PVS/PolyCARP_analysis</title>
<polygon fill="#fcfcd7" stroke="black" points="515.5,-207 388.5,-207 388.5,-171 515.5,-171 515.5,-207"/>
<text text-anchor="middle" x="452" y="-185.3" font-family="Times,serif" font-size="14.00">PolyCARP_analysis</text>
</g>
<!-- /Users/mmoscato/nasa/polycarp/gitlab__master/PVS/PolyCARP_analysis&#45;&gt;/Users/mmoscato/nasa/polycarp/gitlab__master/PVS/PolyCARP -->
<g id="edge23" class="edge">
<title>/Users/mmoscato/nasa/polycarp/gitlab__master/PVS/PolyCARP_analysis&#45;&gt;/Users/mmoscato/nasa/polycarp/gitlab__master/PVS/PolyCARP</title>
<path fill="none" stroke="black" d="M474.25,-170.83C474.25,-170.83 474.25,-145.41 474.25,-145.41"/>
<polygon fill="black" stroke="black" points="477.75,-145.41 474.25,-135.41 470.75,-145.41 477.75,-145.41"/>
</g>
<!-- /Users/mmoscato/nasa/polycarp/gitlab__master/PVS/PolyCARP_analysis&#45;&gt;/Users/mmoscato/nasa/pvslib/pvslib&#45;github/analysis -->
<g id="edge24" class="edge">
<title>/Users/mmoscato/nasa/polycarp/gitlab__master/PVS/PolyCARP_analysis&#45;&gt;/Users/mmoscato/nasa/pvslib/pvslib&#45;github/analysis</title>
<path fill="none" stroke="black" d="M394.25,-170.92C394.25,-130.03 394.25,-34 394.25,-34 394.25,-34 392.26,-34 392.26,-34"/>
<polygon fill="black" stroke="black" points="392.26,-30.5 382.26,-34 392.26,-37.5 392.26,-30.5"/>
</g>
<!-- /Users/mmoscato/nasa/polycarp/gitlab__master/PVS/PolyCARP_analysis&#45;&gt;/Users/mmoscato/nasa/pvslib/pvslib&#45;github/ints -->
<g id="edge25" class="edge">
<title>/Users/mmoscato/nasa/polycarp/gitlab__master/PVS/PolyCARP_analysis&#45;&gt;/Users/mmoscato/nasa/pvslib/pvslib&#45;github/ints</title>
<path fill="none" stroke="black" d="M413.5,-170.92C413.5,-170.92 413.5,-62.45 413.5,-62.45"/>
<polygon fill="black" stroke="black" points="417,-62.45 413.5,-52.45 410,-62.45 417,-62.45"/>
</g>
<!-- /Users/mmoscato/nasa/polycarp/gitlab__master/PVS/PolyCARP_analysis&#45;&gt;/Users/mmoscato/nasa/pvslib/pvslib&#45;github/orders -->
<g id="edge26" class="edge">
<title>/Users/mmoscato/nasa/polycarp/gitlab__master/PVS/PolyCARP_analysis&#45;&gt;/Users/mmoscato/nasa/pvslib/pvslib&#45;github/orders</title>
<path fill="none" stroke="black" d="M427,-170.92C427,-135.2 427,-59 427,-59 427,-59 490,-59 490,-59 490,-59 490,-58.32 490,-58.32"/>
<polygon fill="black" stroke="black" points="493.5,-62.17 490,-52.17 486.5,-62.17 493.5,-62.17"/>
</g>
<!-- /Users/mmoscato/nasa/polycarp/gitlab__master/PVS/PolyCARP_analysis&#45;&gt;/Users/mmoscato/nasa/pvslib/pvslib&#45;github/reals -->
<g id="edge27" class="edge">
<title>/Users/mmoscato/nasa/polycarp/gitlab__master/PVS/PolyCARP_analysis&#45;&gt;/Users/mmoscato/nasa/pvslib/pvslib&#45;github/reals</title>
<path fill="none" stroke="black" d="M488,-170.58C488,-161.72 488,-153 488,-153 488,-153 584.5,-153 584.5,-153 584.5,-153 584.5,-62.07 584.5,-62.07"/>
<polygon fill="black" stroke="black" points="588,-62.07 584.5,-52.07 581,-62.07 588,-62.07"/>
</g>
<!-- /Users/mmoscato/nasa/polycarp/gitlab__master/PVS/PolyCARP_analysis&#45;&gt;/Users/mmoscato/nasa/pvslib/pvslib&#45;github/series -->
<g id="edge28" class="edge">
<title>/Users/mmoscato/nasa/polycarp/gitlab__master/PVS/PolyCARP_analysis&#45;&gt;/Users/mmoscato/nasa/pvslib/pvslib&#45;github/series</title>
<path fill="none" stroke="black" d="M388.12,-192C287.02,-192 101.5,-192 101.5,-192 101.5,-192 101.5,-62.12 101.5,-62.12"/>
<polygon fill="black" stroke="black" points="105,-62.12 101.5,-52.12 98,-62.12 105,-62.12"/>
</g>
<!-- /Users/mmoscato/nasa/polycarp/gitlab__master/PVS/PolyCARP_analysis&#45;&gt;/Users/mmoscato/nasa/pvslib/pvslib&#45;github/structures -->
<g id="edge29" class="edge">
<title>/Users/mmoscato/nasa/polycarp/gitlab__master/PVS/PolyCARP_analysis&#45;&gt;/Users/mmoscato/nasa/pvslib/pvslib&#45;github/structures</title>
<path fill="none" stroke="black" d="M388.39,-185C307.38,-185 177.75,-185 177.75,-185 177.75,-185 177.75,-62.21 177.75,-62.21"/>
<polygon fill="black" stroke="black" points="181.25,-62.21 177.75,-52.21 174.25,-62.21 181.25,-62.21"/>
</g>
<!-- /Users/mmoscato/nasa/polycarp/gitlab__master/PVS/PolyCARP_analysis&#45;&gt;/Users/mmoscato/nasa/pvslib/pvslib&#45;github/trig -->
<g id="edge30" class="edge">
<title>/Users/mmoscato/nasa/polycarp/gitlab__master/PVS/PolyCARP_analysis&#45;&gt;/Users/mmoscato/nasa/pvslib/pvslib&#45;github/trig</title>
<path fill="none" stroke="black" d="M388.06,-199C270.97,-199 34,-199 34,-199 34,-199 34,-62.29 34,-62.29"/>
<polygon fill="black" stroke="black" points="37.5,-62.29 34,-52.29 30.5,-62.29 37.5,-62.29"/>
</g>
<!-- /Users/mmoscato/nasa/polycarp/gitlab__master/PVS/PolyCARP_analysis&#45;&gt;/Users/mmoscato/nasa/pvslib/pvslib&#45;github/vectors -->
<g id="edge31" class="edge">
<title>/Users/mmoscato/nasa/polycarp/gitlab__master/PVS/PolyCARP_analysis&#45;&gt;/Users/mmoscato/nasa/pvslib/pvslib&#45;github/vectors</title>
<path fill="none" stroke="black" d="M388.47,-178C333.23,-178 262,-178 262,-178 262,-178 262,-62.24 262,-62.24"/>
<polygon fill="black" stroke="black" points="265.5,-62.24 262,-52.24 258.5,-62.24 265.5,-62.24"/>
</g>
<!-- /Users/mmoscato/nasa/polycarp/gitlab__master/PVS/PolyCARP_analysis&#45;&gt;/Users/mmoscato/pvs/7.1.0&#45;ix86&#45;MacOSX&#45;allegro/lib/finite_sets -->
<g id="edge32" class="edge">
<title>/Users/mmoscato/nasa/polycarp/gitlab__master/PVS/PolyCARP_analysis&#45;&gt;/Users/mmoscato/pvs/7.1.0&#45;ix86&#45;MacOSX&#45;allegro/lib/finite_sets</title>
<path fill="none" stroke="black" d="M501.75,-170.84C501.75,-165.96 501.75,-162 501.75,-162 501.75,-162 1150,-162 1150,-162 1150,-162 1150,-62.07 1150,-62.07"/>
<polygon fill="black" stroke="black" points="1153.5,-62.07 1150,-52.07 1146.5,-62.07 1153.5,-62.07"/>
</g>
</g>
</svg>
